<?xml version="1.0" encoding="UTF-8" standalone="no"?>
<!-- Created with Inkscape (http://www.inkscape.org/) -->

<svg
   xmlns:dc="http://purl.org/dc/elements/1.1/"
   xmlns:cc="http://creativecommons.org/ns#"
   xmlns:rdf="http://www.w3.org/1999/02/22-rdf-syntax-ns#"
   xmlns:svg="http://www.w3.org/2000/svg"
   xmlns="http://www.w3.org/2000/svg"
   xmlns:sodipodi="http://sodipodi.sourceforge.net/DTD/sodipodi-0.dtd"
   xmlns:inkscape="http://www.inkscape.org/namespaces/inkscape"
   width="300"
   height="400"
   viewBox="0 0 300 400.00001"
   id="svg2"
   version="1.1"
   inkscape:version="0.91 r13725"
   sodipodi:docname="icon.svg"
   inkscape:export-filename="/Users/pmn/code/personal/cicerone/mobile/resources/brew-line-ingredients.png"
   inkscape:export-xdpi="110.15305"
   inkscape:export-ydpi="110.15305">
  <defs
     id="defs4" />
  <sodipodi:namedview
     id="base"
     pagecolor="#ffffff"
     bordercolor="#666666"
     borderopacity="1.0"
     inkscape:pageopacity="0.0"
     inkscape:pageshadow="2"
     inkscape:zoom="1.4142136"
     inkscape:cx="51.697011"
     inkscape:cy="216.4147"
     inkscape:document-units="px"
     inkscape:current-layer="layer2"
     showgrid="false"
     fit-margin-top="0"
     fit-margin-left="0"
     fit-margin-right="0"
     fit-margin-bottom="0"
     units="px" />
  <metadata
     id="metadata7">
    <rdf:RDF>
      <cc:Work
         rdf:about="">
        <dc:format>image/svg+xml</dc:format>
        <dc:type
           rdf:resource="http://purl.org/dc/dcmitype/StillImage" />
        <dc:title />
      </cc:Work>
    </rdf:RDF>
  </metadata>
  <g
     inkscape:label="Lines"
     inkscape:groupmode="layer"
     id="layer1"
     style="display:inline"
     transform="translate(-151.17227,-663.2467)">
    <rect
       y="333.76038"
       x="378.63959"
       height="179.24789"
       width="179.24789"
       id="rect4181"
       style="opacity:1;fill:#ffffff;fill-opacity:1;stroke:none;stroke-width:0.63611138;stroke-linecap:round;stroke-linejoin:miter;stroke-miterlimit:4;stroke-dasharray:none;stroke-dashoffset:0;stroke-opacity:1"
       inkscape:export-xdpi="200.83917"
       inkscape:export-ydpi="200.83917" />
    <rect
       style="opacity:1;fill:#ffffff;fill-opacity:1;stroke:#000000;stroke-width:0.63611138;stroke-linecap:round;stroke-linejoin:miter;stroke-miterlimit:4;stroke-dasharray:none;stroke-dashoffset:0;stroke-opacity:1"
       id="rect4167"
       width="149.24817"
       height="149.24817"
       x="393.63947"
       y="348.76022" />
    <text
       xml:space="preserve"
       style="font-style:normal;font-variant:normal;font-weight:300;font-stretch:normal;font-size:50px;line-height:125%;font-family:'Kannada MN';-inkscape-font-specification:'Kannada MN, Light';text-align:start;letter-spacing:0px;word-spacing:0px;writing-mode:lr-tb;text-anchor:start;fill:#666666;fill-opacity:1;stroke:none;stroke-width:1px;stroke-linecap:butt;stroke-linejoin:miter;stroke-opacity:1"
       x="402.34558"
       y="408.89914"
       id="text4155"
       sodipodi:linespacing="125%"><tspan
         sodipodi:role="line"
         x="402.34558"
         y="408.89914"
         id="tspan4159">BREW</tspan></text>
    <text
       sodipodi:linespacing="125%"
       id="text4163"
       y="467.75229"
       x="402.34546"
       style="font-style:normal;font-variant:normal;font-weight:300;font-stretch:normal;font-size:50px;line-height:125%;font-family:'Kannada MN';-inkscape-font-specification:'Kannada MN, Light';text-align:start;letter-spacing:10.72599983px;word-spacing:0px;writing-mode:lr-tb;text-anchor:start;fill:#666666;fill-opacity:1;stroke:none;stroke-width:1px;stroke-linecap:butt;stroke-linejoin:miter;stroke-opacity:1"
       xml:space="preserve"><tspan
         id="tspan4165"
         y="467.75229"
         x="402.34546"
         sodipodi:role="line">LINE</tspan></text>
    <path
       style="fill:none;fill-rule:evenodd;stroke:#666666;stroke-width:2;stroke-linecap:butt;stroke-linejoin:miter;stroke-miterlimit:4;stroke-dasharray:none;stroke-opacity:1"
       d="m 406.17856,480.46938 124.17,0"
       id="path4169"
       inkscape:connector-curvature="0" />
    <path
       inkscape:connector-curvature="0"
       id="path4171"
       d="m 406.17856,484.46938 124.17,0"
       style="fill:none;fill-rule:evenodd;stroke:#666666;stroke-width:2;stroke-linecap:butt;stroke-linejoin:miter;stroke-miterlimit:4;stroke-dasharray:none;stroke-opacity:1" />
    <path
       inkscape:connector-curvature="0"
       id="path4205"
       d="m 406.17856,421.15237 124.17,0"
       style="fill:none;fill-rule:evenodd;stroke:#666666;stroke-width:2;stroke-linecap:butt;stroke-linejoin:miter;stroke-miterlimit:4;stroke-dasharray:none;stroke-opacity:1" />
    <path
       style="fill:none;fill-rule:evenodd;stroke:#666666;stroke-width:2;stroke-linecap:butt;stroke-linejoin:miter;stroke-miterlimit:4;stroke-dasharray:none;stroke-opacity:1"
       d="m 406.17856,425.15237 124.17,0"
       id="path4207"
       inkscape:connector-curvature="0" />
    <path
       inkscape:connector-curvature="0"
       id="path4231"
       d="m 406.17856,362.29922 124.17,0"
       style="fill:none;fill-rule:evenodd;stroke:#666666;stroke-width:2;stroke-linecap:butt;stroke-linejoin:miter;stroke-miterlimit:4;stroke-dasharray:none;stroke-opacity:1" />
    <path
       style="fill:none;fill-rule:evenodd;stroke:#666666;stroke-width:2;stroke-linecap:butt;stroke-linejoin:miter;stroke-miterlimit:4;stroke-dasharray:none;stroke-opacity:1"
       d="m 406.17856,366.29922 124.17,0"
       id="path4233"
       inkscape:connector-curvature="0" />
    <g
       id="g4262"
       transform="matrix(0.99532598,-0.09657221,0.09657221,0.99532598,-37.729735,47.217503)">
      <path
         sodipodi:nodetypes="csccccccccccccccssccccccscscccccccssccsccsccccssccccscscccccccccccscc"
         inkscape:connector-curvature="0"
         id="path4258"
         d="m 489.94531,410.98242 c -3.34533,0.002 -14.45594,0.10137 -24.77539,0.20703 -5.15972,0.0528 -10.11632,0.10669 -13.79297,0.15235 -1.83832,0.0228 -3.356,0.0436 -4.42187,0.0605 -0.53294,0.008 -0.95129,0.0149 -1.2461,0.0215 -0.1474,0.003 -0.26352,0.007 -0.35546,0.01 -0.046,0.002 -0.0833,0.003 -0.13282,0.006 -0.0248,0.001 -0.0496,0.004 -0.10351,0.01 -0.027,0.003 -0.0592,0.004 -0.12891,0.0156 -0.0697,0.0112 -0.59716,0.19506 -0.59766,0.19532 -7e-4,3.6e-4 -0.66548,0.55206 -0.66601,0.55273 -5.3e-4,6.8e-4 -0.25101,0.40035 -0.30859,0.5625 -0.11517,0.3243 -0.11686,0.52498 -0.11719,0.67188 -6.7e-4,0.29379 0.0377,0.40307 0.0605,0.49804 0.0456,0.18995 0.079,0.2659 0.11132,0.34961 0.0647,0.16742 0.12792,0.30736 0.20899,0.48047 0.16212,0.34622 0.38422,0.79269 0.66406,1.33594 0.55969,1.08649 1.34277,2.54972 2.22461,4.15039 l 2.78906,5.0625 -0.63672,2.34375 c -0.25402,0.93326 -0.45525,1.74124 -0.58789,2.36133 -0.0663,0.31004 -0.11686,0.5645 -0.15039,0.82422 -0.0168,0.12985 -0.0345,0.24556 -0.0293,0.48046 0.003,0.11746 -0.005,0.25696 0.0859,0.56641 0.0452,0.15473 0.11145,0.36352 0.31836,0.64258 0.20667,0.27873 0.63179,0.64011 1.16602,0.76367 0.54961,0.12661 0.63822,0.0551 0.78515,0.0391 0.14694,-0.016 0.26427,-0.0382 0.38282,-0.0625 0.23708,-0.0487 0.47351,-0.11159 0.72265,-0.1914 0.27199,-0.0871 1.17476,-0.35294 1.92383,-0.56641 l 1.49219,2.70313 c 1.24215,2.25088 2.4708,4.48566 2.67383,4.86328 l 1.59179,2.96289 17.54883,-14.86328 c 4.30859,-3.64912 8.2491,-6.99027 11.125,-9.4336 1.43795,-1.22166 2.60894,-2.21977 3.42969,-2.91992 0.41037,-0.35008 0.73329,-0.62444 0.95898,-0.81836 0.11285,-0.097 0.20133,-0.17281 0.26758,-0.23047 0.0331,-0.0288 0.0596,-0.0528 0.0859,-0.0762 0.0263,-0.0234 -0.0343,0.052 0.1582,-0.15234 0.16823,-0.17861 0.44221,-0.46689 0.54688,-1.09375 0.10466,-0.62687 -0.23831,-1.465 -0.59766,-1.8125 -0.7187,-0.69501 -1.01595,-0.5602 -1.25781,-0.59961 -0.48373,-0.0788 -0.8416,-0.0726 -1.41602,-0.0723 z m -26.06836,10.14844 c -1.35228,0.50747 -2.95744,1.10651 -4.08398,1.53125 -1.41429,0.53322 -2.60549,0.9828 -3.46289,1.31055 -0.4287,0.16387 -0.77492,0.29769 -1.02735,0.39648 -0.12621,0.0494 -0.22765,0.0905 -0.3125,0.125 -0.0849,0.0345 -0.0412,-0.003 -0.3125,0.14063 -7.8e-4,4.1e-4 -0.32454,0.20265 -0.45312,0.32617 -0.12859,0.12351 -0.23051,0.25495 -0.30859,0.3789 -0.15617,0.24791 -0.22184,0.46257 -0.25977,0.62891 -0.0759,0.33268 -0.0546,0.50628 -0.043,0.63867 0.0232,0.26479 0.0608,0.36663 0.0898,0.46485 0.0581,0.19643 0.10974,0.31742 0.16993,0.46093 0.0717,0.171 0.18211,0.39604 0.27929,0.60157 l -1.53125,0.43554 1.02149,-3.75781 -0.86719,-1.57422 c 0.0115,-0.003 0.0885,0.005 0.10156,0.004 0.0577,-0.005 0.0886,-0.0101 0.11719,-0.0137 0.0571,-0.007 0.0987,-0.0123 0.14453,-0.0195 0.0917,-0.0145 0.19534,-0.0333 0.32617,-0.0566 0.26168,-0.0466 0.62173,-0.11377 1.07422,-0.19922 0.90499,-0.17088 2.17403,-0.4159 3.68946,-0.71093 1.54997,-0.30176 3.71812,-0.73102 5.64843,-1.11133 z"
         style="color:#000000;font-style:normal;font-variant:normal;font-weight:normal;font-stretch:normal;font-size:medium;line-height:normal;font-family:sans-serif;text-indent:0;text-align:start;text-decoration:none;text-decoration-line:none;text-decoration-style:solid;text-decoration-color:#000000;letter-spacing:normal;word-spacing:normal;text-transform:none;direction:ltr;block-progression:tb;writing-mode:lr-tb;baseline-shift:baseline;text-anchor:start;white-space:normal;clip-rule:nonzero;display:inline;overflow:visible;visibility:visible;opacity:1;isolation:auto;mix-blend-mode:normal;color-interpolation:sRGB;color-interpolation-filters:linearRGB;solid-color:#000000;solid-opacity:1;fill:#ffffff;fill-opacity:1;fill-rule:nonzero;stroke:none;stroke-width:4;stroke-linecap:butt;stroke-linejoin:miter;stroke-miterlimit:4;stroke-dasharray:none;stroke-dashoffset:0;stroke-opacity:1;color-rendering:auto;image-rendering:auto;shape-rendering:auto;text-rendering:auto;enable-background:accumulate" />
      <path
         inkscape:connector-curvature="0"
         id="path4246"
         d="m 475.35282,426.66443 c 8.61587,-7.29714 15.75312,-13.36086 15.86057,-13.47493 0.14452,-0.15344 -0.18535,-0.20719 -1.26775,-0.2066 -6.61713,0.004 -44.51436,0.39183 -44.64183,0.45727 -0.0899,0.0461 1.26763,2.68136 3.01665,5.85609 l 3.18002,5.77224 -0.8505,3.12473 c -0.49417,1.81554 -0.77778,3.14146 -0.67693,3.16467 0.0955,0.022 0.46913,-0.0547 0.83036,-0.17042 0.36124,-0.11569 1.30041,-0.39281 2.08704,-0.61581 l 1.43024,-0.40547 2.26046,4.09613 c 1.24325,2.25288 2.45081,4.45017 2.68346,4.88288 l 0.423,0.78676 15.66521,-13.26754 z m -17.70048,3.88082 c -1.22246,-2.22546 -2.14038,-4.08977 -2.03982,-4.14291 0.51329,-0.27124 29.8749,-11.23804 29.91393,-11.17309 0.0251,0.0419 -5.59715,4.65013 -12.49398,10.24061 l -12.5397,10.1645 -0.30889,-0.52141 c -0.16989,-0.28678 -1.30908,-2.34224 -2.53154,-4.5677 z m -6.51681,-11.82281 c -0.74601,-1.37214 -1.28451,-2.5331 -1.19666,-2.57991 0.18659,-0.0994 34.82038,-1.35927 34.87655,-1.26869 0.0513,0.0827 -31.83443,6.41278 -32.10734,6.37407 -0.11889,-0.0169 -0.82653,-1.15333 -1.57255,-2.52547 z"
         style="fill:#666666" />
    </g>
  </g>
  <g
     inkscape:groupmode="layer"
     id="layer2"
     inkscape:label="Camp"
     transform="translate(-151.17227,-663.2467)">
    <rect
       style="opacity:1;fill:#f3f0ef;fill-opacity:0.94117647;stroke:none;stroke-width:2;stroke-linecap:round;stroke-linejoin:miter;stroke-miterlimit:4;stroke-dasharray:none;stroke-dashoffset:0;stroke-opacity:1"
       id="rect4165"
       width="300"
       height="399.99969"
       x="151.17227"
       y="663.24701" />
    <path
       inkscape:connector-curvature="0"
       id="path4287"
       d="M 393.22542,707.3394 216.52156,884.04326"
       style="fill:none;fill-rule:evenodd;stroke:#666666;stroke-width:1.836;stroke-linecap:butt;stroke-linejoin:miter;stroke-miterlimit:4;stroke-dasharray:none;stroke-opacity:1" />
    <path
       style="fill:#3d6194;fill-opacity:1"
       d="m 391.49612,835.61846 c -1.30109,-0.64096 -1.75225,-1.6228 -2.22996,-4.85283 -0.23639,-1.59842 -0.48807,-3.20879 -0.55933,-3.57861 -0.12392,-0.64341 -0.2553,-0.69036 -3.0486,-1.08939 -6.55316,-0.93614 -11.37493,-3.05124 -14.68081,-6.43983 -1.47289,-1.50973 -3.67685,-5.06698 -5.89401,-9.51309 -1.9639,-3.93823 -4.12897,-8.77196 -3.9909,-8.91005 0.21498,-0.21497 6.01862,0.47559 8.49356,1.01061 5.73847,1.24053 9.03049,2.92857 12.43232,6.37488 2.35829,2.38912 2.40783,2.42236 2.56614,1.72171 0.85603,-3.78874 2.39347,-7.18535 4.59188,-10.14478 1.58667,-2.13595 4.02567,-4.76457 4.42084,-4.76457 0.38178,0 2.31828,2.12525 4.15317,4.55799 1.89874,2.5174 3.35331,5.45049 4.25463,8.57921 0.3689,1.28053 0.70583,2.36334 0.74873,2.40625 0.043,0.043 0.65562,-0.63014 1.36159,-1.49566 3.6955,-4.53087 9.76152,-7.12909 18.81939,-8.06083 1.62265,-0.16691 3.00553,-0.2482 3.07309,-0.18063 0.1644,0.16437 -3.18701,7.38031 -5.16627,11.12338 -3.07997,5.8249 -4.59805,7.74008 -7.75286,9.78093 -3.12945,2.02443 -8.1857,3.6584 -12.87466,4.16054 -1.93399,0.20711 -1.67223,-0.27661 -2.39219,4.42076 -0.24777,1.61654 -0.65216,3.22181 -0.92803,3.68379 -0.92695,1.55233 -3.52215,2.1342 -5.39772,1.21022 z m -10.44994,-31.54132 c -1.65903,-1.1884 -1.98062,-1.54291 -2.13377,-2.35228 -0.27165,-1.43563 -0.24353,-3.92599 0.0639,-5.6585 0.56491,-3.18337 2.47617,-8.18711 3.12721,-8.18711 0.80771,0 5.0014,3.59598 6.78676,5.81948 l 1.01291,1.26148 -1.00911,1.14641 c -1.56318,1.77589 -3.63212,4.88249 -4.81754,7.23377 l -1.07691,2.13604 -1.95344,-1.39929 z m 22.12344,-0.36374 c -1.12101,-2.34456 -2.87747,-5.06407 -4.62241,-7.15671 l -1.34299,-1.61061 0.99387,-1.25442 c 1.72356,-2.17541 6.00951,-5.81241 6.84951,-5.81241 0.66979,0 2.71891,5.7797 3.12072,8.80219 0.2865,2.15512 0.15521,5.34328 -0.24459,5.93916 -0.0994,0.14812 -0.76674,0.66008 -1.48299,1.13768 -0.71626,0.4776 -1.54363,1.08462 -1.8386,1.34892 -0.53182,0.47651 -0.54391,0.46476 -1.43252,-1.3938 z m -29.62014,-3.22447 c -1.04327,-0.34226 -3.0924,-0.86591 -4.55359,-1.16369 -1.46121,-0.29777 -2.71512,-0.59979 -2.78649,-0.67115 -0.26933,-0.26934 -0.10484,-6.29523 0.22152,-8.11473 0.38686,-2.15683 0.12262,-2.081 3.15515,-0.90553 2.0746,0.80416 5.49825,2.79342 6.36538,3.6985 0.59176,0.61766 0.6196,0.75803 0.36501,1.84022 -0.15158,0.64435 -0.29217,2.25546 -0.31241,3.58024 -0.0217,1.42703 -0.14293,2.39845 -0.29724,2.38355 -0.14325,-0.0139 -1.11405,-0.30517 -2.15733,-0.64741 z m 37.57102,-0.31801 c 0.15247,-0.90254 -0.14846,-4.3406 -0.51003,-5.82668 -0.12296,-0.50539 0.0905,-0.77582 1.29958,-1.64654 1.66151,-1.19653 4.10512,-2.50989 5.99083,-3.21989 2.60767,-0.98184 2.38231,-1.06835 2.7651,1.06155 0.32632,1.81577 0.47163,7.86392 0.1957,8.13993 -0.0725,0.0728 -1.12035,0.31483 -2.32799,0.53793 -1.20754,0.22309 -3.32735,0.75206 -4.71061,1.17548 -1.38329,0.42343 -2.59496,0.76986 -2.69258,0.76986 -0.0976,0 -0.10215,-0.44623 -0.01,-0.99164 z m -16.51765,-7.71994 c -0.75152,-0.79998 -1.33403,-0.84263 -1.96632,-0.14397 -0.65591,0.72476 -0.94801,0.65513 -1.66438,-0.39676 -0.34239,-0.50276 -1.36794,-1.61141 -2.279,-2.46365 -1.47606,-1.38078 -1.65645,-1.658 -1.65645,-2.54555 0,-2.67867 2.0412,-7.42352 4.61309,-10.72326 0.82921,-1.06388 1.64374,-1.97852 1.81007,-2.03254 0.41572,-0.13501 2.63952,2.66923 3.9938,5.03617 1.44001,2.51687 2.33799,5.01069 2.51768,6.99204 l 0.14287,1.57556 -1.93338,1.95342 c -1.06337,1.07439 -2.16289,2.28193 -2.44337,2.68342 l -0.50998,0.73 -0.62463,-0.66488 z m -18.37512,-2.36724 c -0.42976,-0.353 -1.8802,-1.19852 -3.22322,-1.87896 l -2.44183,-1.23713 0.16042,-2.09771 c 0.19526,-2.55301 0.90725,-5.42724 1.97567,-7.97559 1.17143,-2.79401 1.11162,-2.73737 2.13462,-2.02161 4.38912,3.07088 7.7291,6.94576 8.66919,10.05759 0.16489,0.54583 0.11846,0.5386 -1.2286,-0.19099 l -1.39993,-0.75825 -1.18242,2.14442 c -0.65034,1.17943 -1.40275,2.7007 -1.67201,3.38061 -0.26928,0.67991 -0.60681,1.23242 -0.75006,1.22781 -0.14326,-0.005 -0.61208,-0.29721 -1.04183,-0.65019 z m 32.70774,-0.84154 c -0.91553,-2.1674 -2.59733,-5.00986 -2.96202,-5.00622 -0.17274,0.002 -0.81219,0.28795 -1.42103,0.63604 -0.6088,0.34809 -1.10695,0.5186 -1.10695,0.37889 0,-0.39515 1.28594,-2.84543 2.16993,-4.13469 1.0493,-1.53037 3.81281,-4.21434 5.8071,-5.63997 0.87771,-0.62743 1.65494,-1.14078 1.72719,-1.14078 0.26515,0 2.05839,4.50873 2.53607,6.37643 0.27072,1.05854 0.57139,2.90026 0.66816,4.09272 l 0.17591,2.16808 -1.63583,0.77884 c -0.89969,0.42837 -2.39599,1.27697 -3.32507,1.88579 -0.92908,0.60882 -1.75979,1.10494 -1.84597,1.1025 -0.0862,-0.003 -0.44056,-0.67638 -0.78749,-1.49763 z m -7.67927,-8.59162 c -0.63778,-1.58853 -2.30303,-4.47958 -3.18179,-5.52393 -0.56108,-0.66681 -0.6563,-0.98398 -0.52967,-1.76436 0.33021,-2.03489 2.86685,-6.5286 5.25811,-9.31488 l 0.6706,-0.78137 1.28858,1.4173 c 1.99183,2.19081 4.64622,6.94801 4.66778,8.36558 0.004,0.22353 -0.78493,1.08814 -1.75191,1.92135 -2.03758,1.7558 -3.69,3.6152 -4.93311,5.55105 -0.48291,0.75207 -0.90376,1.36697 -0.93517,1.36644 -0.0314,-5.3e-4 -0.28046,-0.55727 -0.55342,-1.23718 z m -17.27164,-0.66341 c -1.18677,-1.8051 -4.09558,-4.84639 -5.57957,-5.83371 -1.10319,-0.73398 -1.09798,-0.83841 0.18277,-3.6538 0.95524,-2.09991 3.07836,-5.29946 4.28123,-6.45188 l 0.78784,-0.75479 0.7778,0.89813 c 2.05709,2.37526 4.74723,7.12591 5.09998,9.0063 0.13437,0.7163 -0.0671,1.17686 -1.4005,3.2008 -0.85659,1.30026 -1.81919,3.00894 -2.13906,3.79708 -0.31989,0.78814 -0.66034,1.43297 -0.75657,1.43297 -0.0962,0 -0.6605,-0.73849 -1.25392,-1.6411 z m 7.47678,-9.56806 c -0.30543,-0.92542 -1.91118,-3.80934 -3.19122,-5.73141 -0.42434,-0.63718 -0.4123,-0.72242 0.32076,-2.27243 1.11853,-2.36515 4.41344,-7.09317 4.94313,-7.09317 0.2727,0 2.69302,3.05877 3.62156,4.57684 0.44441,0.72662 1.09196,1.96308 1.43895,2.74768 l 0.6309,1.42656 -1.04274,1.54986 c -0.57353,0.85242 -1.51029,2.52821 -2.08171,3.72397 l -1.03893,2.17412 -0.75695,-0.72522 -0.75696,-0.72521 -0.73051,0.69987 c -0.40177,0.38493 -0.79325,0.69987 -0.86992,0.69987 -0.0766,0 -0.29554,-0.4731 -0.48636,-1.05133 z"
       id="path4300"
       inkscape:connector-curvature="0" />
    <path
       inkscape:connector-curvature="0"
       id="path4306"
       d="m 327.99946,712.85682 c 13.90549,-14.30156 25.42134,-26.18196 25.59082,-26.40087 0.22797,-0.29447 -0.36127,-0.3327 -2.2645,-0.14699 -11.63513,1.13601 -78.20889,8.28378 -78.42189,8.42059 -0.15017,0.0965 2.68653,4.49873 6.30373,9.78288 l 6.57668,9.60758 -0.96242,5.63975 c -0.55921,3.27684 -0.83171,5.65677 -0.65041,5.68037 0.17172,0.0225 0.81561,-0.17614 1.43105,-0.44134 0.61549,-0.26508 2.21969,-0.9126 3.56488,-1.43894 l 2.44582,-0.95702 4.67372,6.81713 c 2.57056,3.74945 5.06887,7.40721 5.55179,8.12841 l 0.87805,1.3113 25.28268,-26.00285 z m -30.46308,9.84414 c -2.52931,-3.70478 -4.46149,-6.82644 -4.29374,-6.93705 0.85632,-0.56452 50.61582,-24.85846 50.69553,-24.75091 0.0512,0.0694 -9.04887,9.13192 -20.22271,20.13912 l -20.31608,20.01309 -0.63213,-0.86416 c -0.34767,-0.47529 -2.70156,-3.89533 -5.23087,-7.60009 z m -13.47655,-19.67783 c -1.54591,-2.28554 -2.69091,-4.23514 -2.54442,-4.33245 0.31116,-0.20662 60.99759,-8.33103 61.11182,-8.18135 0.10424,0.13675 -54.88477,16.70788 -55.37127,16.68637 -0.21194,-0.009 -1.65018,-1.88704 -3.19613,-4.17257 z"
       style="fill:#3d6194;fill-opacity:1" />
    <path
       style="fill:#3d6194;fill-opacity:1"
       d="m 280.98666,902.48896 c -0.63052,-0.19985 -2.47221,-1.16979 -4.09262,-2.15543 -3.47925,-2.11628 -4.98508,-2.83873 -6.22233,-2.98526 l -0.90951,-0.10772 0,-3.04356 0,-3.04356 0.52196,0 c 0.95676,0 2.81454,0.7685 4.83086,1.99834 5.02113,3.06261 6.18912,3.58251 8.04823,3.58251 1.76692,0 3.07265,-0.5449 6.59701,-2.75307 1.22779,-0.76927 2.86018,-1.69929 3.62755,-2.06671 1.28367,-0.61464 1.52906,-0.6679 3.06947,-0.66622 2.10424,0.002 2.89067,0.30188 6.45758,2.45997 3.72801,2.25556 5.14102,2.8783 6.77352,2.98519 2.13966,0.14009 3.11367,-0.26655 8.48322,-3.54167 4.38837,-2.67666 6.52266,-2.67533 10.89674,0.006 5.19912,3.18801 6.34074,3.66946 8.37667,3.5327 1.69082,-0.11357 2.87823,-0.61581 5.91003,-2.49975 3.219,-2.00027 4.93986,-2.82889 6.18,-2.97576 l 0.96349,-0.11412 0,3.06947 0,3.06947 -0.97007,0.11489 c -1.14799,0.13596 -3.34378,1.1529 -5.54219,2.56675 -2.38638,1.53472 -3.51013,2.13699 -4.78309,2.56347 -2.48232,0.83165 -4.16995,0.39708 -8.36324,-2.15354 -4.53437,-2.75808 -4.9866,-2.94231 -7.22251,-2.94231 -2.2364,0 -2.68757,0.18389 -7.22929,2.94642 -5.54648,3.37368 -7.01806,3.37295 -12.60332,-0.006 -1.43955,-0.87097 -3.25859,-1.8898 -4.04231,-2.26405 -1.33084,-0.63554 -1.54167,-0.68048 -3.19221,-0.68048 -1.64584,0 -1.86377,0.0461 -3.17146,0.67061 -0.7723,0.36883 -2.19742,1.17036 -3.16694,1.78116 -4.83712,3.0474 -6.48376,3.52073 -9.22524,2.65181 z m 0.3093,-11.6867 c -1.3267,-0.42943 -2.65318,-1.11285 -4.83674,-2.49196 -2.29907,-1.45207 -4.43334,-2.48019 -5.69032,-2.74113 l -1.0067,-0.209 0,-3.03088 0,-3.03088 0.97666,0.17045 c 1.25591,0.21918 3.12281,1.09854 5.45029,2.56725 6.08609,3.84048 7.74922,3.86975 13.50861,0.23775 3.96657,-2.50142 5.05977,-2.92719 7.19792,-2.80341 1.75114,0.10137 2.99967,0.64073 6.80687,2.94049 3.54768,2.143 4.47478,2.50265 6.42782,2.49354 1.88617,-0.009 2.89165,-0.3747 5.58085,-2.03084 4.88373,-3.00764 5.97029,-3.48685 7.90621,-3.48685 1.9546,0 2.80849,0.37979 8.14251,3.62165 3.72545,2.2642 5.66157,2.51902 8.55797,1.12634 0.84166,-0.4047 2.57671,-1.39332 3.85566,-2.19693 2.54667,-1.6002 4.54656,-2.48788 5.62736,-2.4978 l 0.6976,-0.006 0,2.96391 c 0,3.30325 0.1211,3.02781 -1.43765,3.27011 -0.93842,0.14588 -3.25663,1.30847 -5.46501,2.74074 -5.57627,3.61656 -7.17981,3.60038 -13.26883,-0.13382 -2.75976,-1.69249 -4.3467,-2.44618 -5.7395,-2.7259 -1.88915,-0.37939 -3.91716,0.34314 -7.76015,2.76474 -4.61029,2.90512 -6.61249,3.37164 -9.47622,2.208 -0.61264,-0.24894 -2.46691,-1.26922 -4.1206,-2.26728 -3.48917,-2.10585 -4.97417,-2.71729 -6.61489,-2.72365 -1.6766,-0.006 -3.02621,0.50131 -5.73741,2.15872 -3.49412,2.13603 -4.50736,2.67288 -5.83483,3.09143 -1.43562,0.45267 -2.39856,0.45822 -3.74748,0.0216 z m 0.63235,-11.55128 c -1.14401,-0.24071 -2.92606,-1.10222 -5.00401,-2.41909 -2.66528,-1.68908 -4.81826,-2.75241 -6.07266,-2.9992 l -1.08944,-0.21433 0,-3.06162 0,-3.06161 0.79063,0.13037 c 1.33734,0.22055 2.77516,0.90453 5.97889,2.84424 3.72495,2.25527 4.77187,2.68955 6.53151,2.7094 2.02639,0.0229 2.84366,-0.33343 7.95762,-3.46895 2.6693,-1.63664 3.77011,-2.04521 5.52945,-2.05226 1.74195,-0.007 3.08816,0.52646 6.36564,2.52245 5.22874,3.18433 6.86695,3.6099 9.74744,2.53218 0.55735,-0.20854 2.39853,-1.2178 4.09151,-2.24282 4.05483,-2.45499 4.95022,-2.82395 6.86254,-2.82771 1.87094,-0.004 3.06945,0.48073 6.55223,2.6483 6.24696,3.88789 7.59143,3.90534 13.53883,0.17565 1.22779,-0.76995 2.67042,-1.62115 3.20587,-1.89154 0.90359,-0.45631 2.78977,-1.04661 3.34422,-1.04661 0.18615,0 0.23995,0.68283 0.23995,3.04526 l 0,3.04527 -1.07932,0.21234 c -1.3993,0.2753 -3.11626,1.10908 -5.96598,2.89717 -5.5986,3.51292 -7.18738,3.51115 -12.79162,-0.0143 -6.28893,-3.95615 -7.75448,-3.97339 -13.83422,-0.16272 -5.95667,3.73354 -7.40473,3.73259 -13.50542,-0.009 -6.27356,-3.84738 -7.35218,-3.80407 -14.4937,0.58201 -3.16879,1.94618 -5.03092,2.52018 -6.89996,2.1269 z"
       id="path4321"
       inkscape:connector-curvature="0" />
    <path
       style="fill:#3d6194;fill-opacity:1"
       d="m 258.02216,755.32213 c -0.21786,-0.0136 -3.2698,3.3649 -5.46187,6.05184 -1.11819,1.37065 -3.41101,4.30933 -3.82225,4.899 -0.20886,0.29949 -0.211,0.32013 -0.0513,0.49657 0.0916,0.10158 0.21759,0.18388 0.28001,0.18388 0.0624,0 0.29872,-0.26587 0.52512,-0.59102 1.84064,-2.64297 4.45283,-6.03288 6.97459,-9.05115 0.88916,-1.06424 1.59304,-1.95791 1.56405,-1.98597 -0.002,0 -0.006,0 -0.008,0 z m -83.62631,0.0513 c -0.0933,-0.0105 0.22967,0.39468 1.56758,1.98168 2.01843,2.39415 5.14783,6.45467 6.79634,8.81847 0.29926,0.42912 0.59783,0.78014 0.66345,0.78014 0.0656,0 0.1902,-0.0775 0.2767,-0.17362 0.14765,-0.16315 0.14126,-0.1975 -0.10357,-0.55993 -1.6846,-2.49364 -8.37119,-10.4129 -9.13672,-10.8213 -0.0285,-0.0147 -0.0504,-0.0252 -0.0637,-0.0252 z m 16.20069,3.57474 c -0.006,0 0.002,0.0398 0.0253,0.10911 0.0342,0.10368 0.0952,0.29552 0.13539,0.42558 0.0401,0.13006 0.46587,1.25777 0.94605,2.5061 1.02757,2.67134 2.10027,5.61579 2.60117,7.13985 0.19658,0.59815 0.39571,1.16205 0.44256,1.25304 0.0999,0.19415 0.32154,0.21855 0.38898,0.043 0.0833,-0.21697 -1.85205,-5.40342 -3.21827,-8.62484 -0.61037,-1.43924 -1.28465,-2.88497 -1.32119,-2.85166 z m 51.06533,0.28902 c -0.0206,0.0105 -0.0824,0.11446 -0.17732,0.29164 -0.92424,1.72711 -4.39609,10.68014 -4.23968,10.93324 0.0737,0.11917 0.19012,0.10639 0.30624,-0.0335 0.0542,-0.0649 0.48869,-1.22499 0.96545,-2.577 0.47674,-1.3519 1.36854,-3.77736 1.98168,-5.3898 0.91416,-2.404 1.22527,-3.25054 1.16363,-3.22457 z m -45.48838,7.72899 c -0.0474,0.0178 0.24282,0.94623 1.46967,4.81051 0.47063,1.48238 1.11869,3.58888 1.44014,4.68119 0.32145,1.0922 0.60385,2.0178 0.62763,2.05686 0.0586,0.0963 0.29287,0.0901 0.35426,-0.0105 0.14315,-0.23163 -3.29639,-10.54463 -3.81246,-11.43117 -0.0396,-0.0681 -0.0683,-0.11215 -0.0793,-0.10796 z m 40.03169,0.0471 c -0.0124,8.5e-4 -0.0468,0.0587 -0.0943,0.14127 -0.57175,0.99869 -3.93588,11.0988 -3.78052,11.35022 0.0309,0.0503 0.1239,0.0786 0.2067,0.0618 0.10647,-0.0209 0.2852,-0.48569 0.61063,-1.58919 0.54064,-1.83351 1.39311,-4.59574 2.33464,-7.56553 0.59951,-1.89088 0.75995,-2.40138 0.72275,-2.39887 z m -51.52782,0.98037 c -0.29674,0 -0.31827,0.0691 -0.39748,1.27671 -0.12319,1.87738 0.22067,4.02451 0.84798,5.29578 0.79899,1.61925 2.39037,2.73291 4.59098,3.21252 0.33808,0.0733 0.76353,0.12577 0.9455,0.11572 0.27818,-0.0157 0.3553,-0.0712 0.48429,-0.34934 0.55391,-1.19504 0.69077,-3.37829 0.28758,-4.58652 -0.30802,-0.92308 -0.74648,-1.60344 -1.49832,-2.32473 -0.77545,-0.74392 -1.24284,-1.06979 -2.28532,-1.59318 -0.87698,-0.44033 -2.60085,-1.04696 -2.97521,-1.04696 z m 63.02504,0.0105 c -0.21534,0 -0.58372,0.11236 -1.22662,0.32746 -2.96596,0.9925 -4.89182,2.6039 -5.52798,4.62589 -0.4076,1.29546 -0.20938,3.87245 0.36572,4.75595 0.16582,0.25468 0.3644,0.2641 1.34371,0.0639 1.52515,-0.31269 3.02437,-1.11252 3.84645,-2.05225 0.53643,-0.61322 1.03381,-1.61139 1.27741,-2.56391 0.32198,-1.25891 0.42956,-3.53599 0.22958,-4.85679 -0.0308,-0.20305 -0.0929,-0.30358 -0.30827,-0.2997 z m 10.56522,3.03796 c -0.0233,0 -0.11996,0.066 -0.29424,0.19352 -0.19504,0.14305 -0.51421,0.37667 -0.70925,0.51908 -1.84474,1.34719 -7.3959,6.01885 -7.6131,6.40694 -0.0444,0.0796 -0.0548,0.18649 -0.0229,0.23812 0.10906,0.17646 0.25499,0.0932 0.88362,-0.50368 1.01143,-0.96059 3.11695,-2.81387 5.41089,-4.76256 1.57828,-1.3408 2.42846,-2.10126 2.345,-2.09142 z m -84.13072,0.0398 c -0.0112,0 -0.0168,0 -0.0161,0.0105 0.003,0.0398 0.29048,0.31058 0.63833,0.60233 1.91498,1.60605 4.80146,4.10492 6.19957,5.36708 0.8773,0.79198 1.64064,1.4248 1.69632,1.40615 0.22342,-0.0743 0.15993,-0.28075 -0.18544,-0.60243 -2.07373,-1.93194 -7.98559,-6.73596 -8.33271,-6.78361 z m 20.98064,0.62517 c -0.0142,-9.2e-4 -0.027,6.2e-4 -0.038,0 -0.22496,0.0858 -1.32257,1.79098 -1.77535,2.75731 -0.83995,1.79235 -0.94475,3.15273 -0.37532,4.87523 0.36904,1.11629 1.12677,2.70433 1.8389,3.8536 0.2981,0.48118 0.59428,0.87481 0.6581,0.87481 0.26376,0 1.49126,-1.4761 2.16269,-2.60066 0.67701,-1.13388 1.11007,-2.46211 1.11284,-3.41295 0.002,-0.58893 -0.27156,-1.68836 -0.60897,-2.45028 -0.59639,-1.34677 -2.53247,-3.8691 -2.97483,-3.90188 z m 42.09371,0.0252 c -0.14675,0 -0.40852,0.23938 -0.87844,0.8038 -1.37984,1.65727 -2.29258,3.31159 -2.55039,4.62203 -0.36423,1.8513 0.65159,4.36944 2.58935,6.41876 0.25819,0.27311 0.52264,0.49657 0.58773,0.49657 0.31296,0 1.94303,-3.07817 2.46986,-4.66401 0.30798,-0.92706 0.35196,-1.17399 0.3572,-2.00304 0.005,-0.73742 -0.0425,-1.10194 -0.21461,-1.65496 -0.47903,-1.53965 -1.93535,-4.01915 -2.3607,-4.01915 z m -5.19238,0.533 c -0.0139,5.3e-4 -0.0284,0 -0.0438,0 -0.17031,0.0251 -0.26621,0.21342 -0.56851,1.11766 -0.19997,0.59814 -0.3432,1.14068 -0.31824,1.20572 0.0819,0.21351 0.33017,0.12356 0.39176,-0.1419 0.0332,-0.14304 0.12372,-0.36127 0.20114,-0.48495 0.14253,-0.22786 0.49869,-1.3718 0.49869,-1.60175 0,-0.0649 -0.0634,-0.10263 -0.16106,-0.0995 z m -0.9732,2.91869 c -0.20885,0 -0.42478,0.40589 -0.33727,0.63396 0.0271,0.0701 -0.24967,1.1166 -0.61507,2.32431 -0.60139,1.98775 -1.65458,5.78198 -2.16582,7.80292 -0.10913,0.43133 -0.17317,0.82497 -0.1424,0.87481 0.0765,0.12378 0.19152,0.11362 0.30882,-0.0273 0.0541,-0.0649 0.33271,-1.07577 0.61931,-2.24599 1.01716,-4.15309 2.22074,-8.49635 2.43457,-8.78558 0.23368,-0.31604 0.1875,-0.57668 -0.1021,-0.57668 z m -29.65616,0.33803 c -0.006,0 -0.0105,0 -0.0135,0.0116 -0.0423,0.12702 0.0195,0.37824 0.81546,3.31283 0.36997,1.36396 0.97124,3.67978 1.33596,5.14603 0.36471,1.46626 0.71019,2.72266 0.76781,2.79209 0.1313,0.15823 0.24299,0.16116 0.29552,0.0105 0.0641,-0.18671 -1.13372,-4.74674 -2.11559,-8.05455 -0.59201,-1.99435 -0.99741,-3.19326 -1.08568,-3.21567 z m 52.00785,2.51657 c -0.25191,0.0544 -2.89961,2.39458 -5.75553,5.09158 -2.55686,2.41457 -2.63994,2.50149 -2.56867,2.68725 0.0311,0.0806 0.0831,0.14734 0.11525,0.14734 0.0322,0 1.29962,-1.20603 2.81635,-2.68024 1.51675,-1.47411 3.36459,-3.24708 4.10614,-3.93968 0.74156,-0.69261 1.32799,-1.27944 1.30327,-1.30416 -0.003,0 -0.008,0 -0.0167,0 z m -74.30691,0.0932 c -0.006,-8.4e-4 -0.0114,0 -0.0142,0 -0.0246,0.0251 0.83859,0.87711 1.91814,1.89434 1.07958,1.01722 2.89908,2.76737 4.04336,3.88931 1.14427,1.12184 2.12305,2.02713 2.17506,2.01152 0.052,-0.0157 0.10704,-0.0922 0.12227,-0.171 0.0557,-0.28693 -7.82776,-7.56992 -8.24461,-7.627 z m 7.71451,0.32661 c -0.83831,0.0105 -1.7152,0.0712 -2.28737,0.19373 l -0.80382,0.17236 0.0135,0.30369 c 0.0182,0.40788 0.75454,2.0288 1.37476,3.02612 0.622,1.00027 1.66863,2.09896 2.30398,2.41866 0.61072,0.30735 1.40012,0.53584 2.20038,0.63711 1.08654,0.13739 3.57009,-0.0503 4.47645,-0.33751 0.26572,-0.0848 0.21855,-0.27708 -0.30881,-1.26447 -0.74023,-1.38593 -1.55562,-2.52107 -2.49387,-3.4719 -0.90984,-0.92194 -1.40664,-1.23273 -2.41924,-1.51359 -0.41792,-0.11592 -1.21762,-0.16995 -2.05594,-0.1642 z m 58.70908,0 c -1.54216,0 -2.21916,0.13206 -3.14809,0.62559 -0.63985,0.34001 -1.82746,1.5473 -2.63554,2.6793 -0.58264,0.81617 -1.59268,2.65878 -1.59268,2.90538 0,0.21237 0.97776,0.44307 2.41148,0.56894 2.68856,0.23582 4.61752,-0.39123 5.88114,-1.91173 0.97646,-1.17503 2.42905,-3.97874 2.27259,-4.3865 -0.0933,-0.24316 -1.65365,-0.47846 -3.1889,-0.48098 z m -13.16695,1.21714 -0.4215,0.4729 c -1.06961,1.19995 -2.31058,3.41997 -2.6202,4.68715 -0.4959,2.02975 0.35027,4.2842 2.43569,6.48977 0.40876,0.43238 0.80286,0.78591 0.87585,0.78591 0.307,0 1.4425,-2.18295 2.06186,-3.96367 0.69541,-1.99948 0.7293,-3.11074 0.14129,-4.64202 -0.45098,-1.17441 -1.63155,-3.07231 -2.26705,-3.64459 l -0.20594,-0.18545 z m -32.3399,0.10158 c -0.0835,0.0105 -0.16109,0.0827 -0.27281,0.19006 -0.41037,0.39321 -1.32324,1.75809 -1.76521,2.63961 -0.4512,0.89983 -0.73318,1.77601 -0.82175,2.55332 -0.14275,1.25285 0.64764,3.72218 1.93533,6.04661 0.33044,0.59647 0.55605,0.90412 0.66308,0.90412 0.21057,0 1.35536,-1.20728 1.98667,-2.09529 0.59472,-0.83637 1.15281,-1.98576 1.37033,-2.82224 0.44438,-1.70899 -0.2589,-3.87507 -2.03175,-6.2577 -0.66749,-0.89712 -0.88011,-1.18039 -1.06389,-1.15849 z m 6.0132,4.0023 c -0.009,0.0105 6.5e-4,0.0911 0.0223,0.24587 0.0292,0.20808 0.32305,1.61244 0.65311,3.12079 0.33004,1.50835 0.77348,3.5936 0.9854,4.63385 0.21191,1.04016 0.44881,2.10787 0.5264,2.37249 0.0776,0.26462 0.14111,0.586 0.14111,0.71407 0,0.12806 0.0493,0.28231 0.10971,0.34263 0.19539,0.1954 0.2744,0.0188 0.2163,-0.48097 -0.14639,-1.26048 -2.0622,-9.36582 -2.49627,-10.56097 -0.0993,-0.27331 -0.14546,-0.39572 -0.15811,-0.38776 z m 20.2542,0.25309 c -0.009,0 -0.0208,0.0168 -0.0355,0.0398 -0.3082,0.48841 -2.75519,10.93639 -2.61466,11.16383 0.0911,0.14734 0.31148,0.10158 0.36645,-0.0754 0.0282,-0.0911 0.26744,-1.22938 0.53159,-2.52976 0.26413,-1.30028 0.75311,-3.59831 1.0866,-5.10666 0.5743,-2.59751 0.75278,-3.52426 0.66549,-3.49181 z m -42.60312,1.42458 c -0.0637,0.024 0.49169,0.6192 2.69648,2.91837 1.04742,1.09221 2.57871,2.72162 3.40279,3.62071 1.38367,1.50962 1.71141,1.77633 1.81176,1.47485 0.0697,-0.20912 -7.27873,-7.69244 -7.84879,-7.99288 -0.0313,-0.0167 -0.0531,-0.024 -0.0622,-0.0209 z m 64.74038,0.26955 c -0.0362,-0.0105 -0.1234,0.0555 -0.25027,0.19037 -0.17998,0.19164 -0.19249,0.23604 -0.0667,0.23604 0.0853,0 0.20237,-0.089 0.26043,-0.19708 0.0776,-0.14494 0.0927,-0.22211 0.0566,-0.22933 z m -57.54489,0.3753 c -0.30321,0 -0.61216,0.0188 -0.92406,0.0482 -1.35764,0.1287 -1.64742,0.18934 -1.71221,0.35814 -0.13457,0.3507 0.97656,2.92057 1.75985,4.07036 0.95474,1.40144 2.07812,2.1154 3.82872,2.43312 1.19736,0.21729 4.00906,0.1199 4.52893,-0.15708 0.22903,-0.12189 0.21147,-0.24106 -0.15331,-1.03911 -1.04471,-2.28546 -2.70185,-4.42191 -3.90057,-5.02885 -0.90445,-0.45804 -2.11346,-0.69595 -3.42735,-0.68454 z m 50.64733,0 c -1.37046,-0.0147 -2.54873,0.22787 -3.46504,0.71627 -0.72691,0.38745 -1.77993,1.485 -2.56978,2.67836 -0.66419,1.00362 -1.59732,2.84381 -1.59732,3.15021 0,0.22557 0.10968,0.26254 1.2294,0.41458 0.65501,0.089 2.78194,0.0387 3.59358,-0.0838 0.84867,-0.12902 1.46528,-0.36244 2.1023,-0.79628 0.60638,-0.4129 1.47071,-1.35012 1.82209,-1.97571 0.89454,-1.59254 1.59674,-3.23985 1.54117,-3.61557 -0.0357,-0.24117 -0.30385,-0.31091 -1.67785,-0.43667 -0.33585,-0.0304 -0.66229,-0.0471 -0.97855,-0.0513 z m 5.84623,0.64737 c -0.11231,0 -0.61,0.44191 -0.71721,0.64223 -0.12566,0.23478 0.0131,0.22734 0.32434,-0.0178 0.25946,-0.2041 0.48488,-0.54474 0.41005,-0.61951 -0.005,0 -0.009,-0.0105 -0.0172,-0.0105 z m -0.97265,0.97251 c -0.0798,0.0105 -0.24631,0.14367 -0.52233,0.41594 -0.29,0.28609 -0.68987,0.67281 -0.88862,0.85942 -0.19874,0.1866 -0.80812,0.81009 -1.35425,1.38551 -0.54612,0.57532 -1.33341,1.40384 -1.7495,1.84093 -0.98189,1.03137 -1.02433,1.08676 -0.95935,1.25609 0.0302,0.0786 0.0884,0.14305 0.1293,0.14305 0.0409,0 0.43148,-0.39364 0.86791,-0.87482 1.90272,-2.09749 3.23323,-3.52091 4.0945,-4.38096 0.27621,-0.27582 0.46092,-0.53741 0.43405,-0.61469 -0.008,-0.023 -0.0251,-0.0335 -0.0518,-0.0304 z m -41.9164,0.32137 c -0.34576,0 -1.91619,2.15562 -2.51548,3.45265 -0.74597,1.61453 -0.77592,2.83669 -0.11913,4.86936 0.35923,1.11179 1.29885,3.30206 1.65605,3.86031 0.13054,0.20399 0.15566,0.20932 0.3587,0.0765 0.54804,-0.35908 2.41666,-2.42202 2.41666,-2.668 0,-0.0597 0.0787,-0.20974 0.1749,-0.33372 0.25887,-0.33374 0.85236,-1.69853 0.90192,-2.07425 0.0237,-0.17949 0.0714,-0.49709 0.1062,-0.7058 0.12046,-0.72244 -0.29692,-2.25415 -0.98946,-3.63107 -0.68334,-1.35861 -1.72347,-2.84571 -1.99036,-2.84571 z m 23.43813,2.2e-4 c -0.33277,-1.1e-4 -1.78917,2.25687 -2.37972,3.68794 -0.34068,0.82549 -0.63169,2.01507 -0.63169,2.5816 0,0.58086 0.37119,1.78439 0.79755,2.58589 0.51437,0.96686 1.1001,1.74407 2.03875,2.70528 0.46787,0.47908 0.7885,0.73291 0.92574,0.73291 0.17479,0 0.30405,-0.19383 0.77279,-1.15849 1.03985,-2.1398 1.68761,-4.46808 1.57627,-5.66605 -0.10644,-1.1453 -0.77438,-2.65208 -1.79551,-4.05079 -0.63518,-0.8701 -1.13937,-1.41829 -1.30418,-1.41829 z m -17.63511,4.00429 c -0.0143,0 -0.0242,0.0325 -0.027,0.10158 -0.005,0.0995 0.0182,0.1555 0.0497,0.12409 0.0314,-0.0314 0.0349,-0.1131 0.007,-0.18137 -0.0113,-0.0283 -0.0217,-0.043 -0.0303,-0.044 z m 11.75765,0.38075 c -0.0555,0.0105 -0.29349,0.93482 -0.6858,2.7546 -0.45892,2.1288 -1.55484,8.05549 -1.55484,8.40828 0,0.11729 0.0283,0.2417 0.063,0.27636 0.0881,0.0879 0.20005,0.0786 0.26265,-0.023 0.0292,-0.0471 0.3077,-1.61118 0.61912,-3.47537 0.31142,-1.86428 0.73688,-4.34221 0.9455,-5.50646 0.29348,-1.63789 0.40248,-2.44201 0.35038,-2.43468 z m -11.66956,0.0419 c -0.065,-0.023 0.0281,0.70684 0.26174,1.98262 0.15932,0.86978 0.5808,3.31284 0.93643,5.42897 0.35564,2.11614 0.67592,3.89507 0.71185,3.95319 0.14673,0.2375 0.28371,0.0126 0.26468,-0.43437 -0.0224,-0.52631 -0.8354,-5.09231 -1.26115,-7.08267 -0.15577,-0.7281 -0.36973,-1.73695 -0.47543,-2.2421 -0.1057,-0.50505 -0.24955,-1.1008 -0.31972,-1.32395 -0.0575,-0.18263 -0.0968,-0.27394 -0.1184,-0.28169 z m 34.19636,0.41154 c -0.0251,0 -0.1154,0.0754 -0.2717,0.22096 -0.84492,0.7836 -5.85218,6.29089 -7.07119,7.77726 -0.1926,0.23488 -0.30604,0.46002 -0.27391,0.54379 0.0301,0.0786 0.0958,0.14273 0.14592,0.14273 0.05,0 0.64008,-0.64893 1.3112,-1.44217 1.53249,-1.81119 2.78909,-3.2698 4.65601,-5.40456 1.0683,-1.22154 1.57891,-1.84649 1.50367,-1.83801 z m -56.69545,0.10691 c -0.0746,-0.024 0.20725,0.2906 1.59953,1.87843 1.72539,1.96785 4.70257,5.44719 5.26794,6.15655 0.43573,0.54673 0.626,0.65197 0.72275,0.39992 0.0609,-0.15876 -0.11123,-0.37175 -2.36773,-2.92926 -2.01397,-2.28253 -4.74916,-5.20478 -5.05699,-5.4027 -0.0761,-0.0492 -0.14061,-0.0953 -0.1655,-0.10261 z m 49.48334,1.01818 c -0.70252,0 -1.10357,0.0345 -1.57757,0.12869 -0.92288,0.18409 -1.84926,0.58548 -2.40759,1.04299 -0.45797,0.37531 -1.43524,1.59244 -1.90615,2.37426 -0.63188,1.04885 -1.54522,3.00581 -1.54522,3.31074 0,0.18735 0.27106,0.24913 1.37124,0.31238 2.1178,0.12178 3.92258,-0.14577 5.05495,-0.74935 1.45277,-0.77429 2.74976,-2.80005 3.50863,-5.47977 0.248,-0.87575 0.26106,-0.86863 -1.68135,-0.92465 -0.31507,-0.0105 -0.58277,-0.0147 -0.81694,-0.0157 z m -43.36485,8.3e-4 c -0.99852,0.0105 -1.5293,0.0953 -1.59123,0.25624 -0.032,0.0838 0.10096,0.62245 0.29535,1.19756 0.8888,2.62977 2.01232,4.28546 3.37435,4.97304 0.49726,0.251 1.54413,0.58316 2.16953,0.6883 0.39169,0.066 3.13134,0.0681 3.67282,0 0.2845,-0.0345 0.526,-0.11551 0.55318,-0.18629 0.0266,-0.0691 -0.0409,-0.31028 -0.15017,-0.53584 -0.10917,-0.22557 -0.19855,-0.44516 -0.19855,-0.4882 0,-0.18671 -0.91385,-1.96051 -1.36624,-2.65197 -1.14282,-1.74658 -2.00105,-2.48965 -3.40205,-2.94581 -0.6465,-0.21048 -0.98522,-0.25561 -2.2026,-0.29404 -0.43673,-0.0136 -0.82155,-0.0188 -1.15439,-0.0157 z m 29.79671,2.4728 c -0.017,-4.1e-4 -0.0323,0 -0.0465,0.0105 -0.20839,0.0796 -1.06621,1.40782 -1.6008,2.47793 -0.75477,1.51087 -1.18439,3.17462 -1.05947,4.10305 0.20866,1.55086 1.14605,3.12947 2.85607,4.81009 0.49631,0.48778 0.96994,0.87471 1.07073,0.87471 0.50756,0 1.95495,-4.06378 2.12814,-5.97518 0.0877,-0.96717 -0.0694,-1.63988 -0.66991,-2.86696 -0.53392,-1.09095 -1.15603,-1.98261 -2.03894,-2.92267 -0.33009,-0.35153 -0.52081,-0.50474 -0.63927,-0.5084 z m -15.12738,0 c -0.18123,0.0105 -1.0529,0.86801 -1.60157,1.58197 -1.05736,1.37609 -1.7111,2.8213 -1.79641,3.97194 -0.0924,1.2454 0.56222,3.76511 1.4922,5.745 0.28254,0.6015 0.5095,0.96927 0.59827,0.96927 0.21394,0 1.36312,-1.02707 2.00273,-1.79015 0.74754,-0.89177 1.46918,-2.09445 1.7255,-2.87522 0.45666,-1.39107 0.20491,-3.01356 -0.78037,-5.02781 -0.51059,-1.04382 -1.43694,-2.5106 -1.62502,-2.57332 -0.005,0 -0.009,0 -0.0152,0 z m -16.83886,4.2463 c -0.006,-9.2e-4 -0.009,0 -0.009,0.0105 -0.002,0.0387 0.75513,1.01796 1.68227,2.17509 2.53371,3.16205 4.17719,5.24048 4.74798,6.0047 0.47155,0.63125 0.84816,0.88194 0.84816,0.56475 0,-0.17478 -0.15294,-0.37992 -1.88434,-2.52704 -2.28009,-2.82769 -5.19571,-6.19467 -5.38429,-6.22514 z m 48.75449,0.0157 c -0.0324,0.0126 -0.20171,0.18409 -0.45474,0.44295 -0.80183,0.82015 -3.01936,3.41348 -4.76885,5.57705 -1.96612,2.43153 -2.0286,2.51447 -2.0286,2.68526 0,0.41176 0.40783,0.0387 1.46581,-1.33871 0.62414,-0.81302 2.17316,-2.77836 3.44231,-4.36755 1.82324,-2.28295 2.41525,-3.02644 2.34407,-2.999 z m -5.91752,1.23377 c -0.40617,0 -0.87096,0.0168 -1.31804,0.0577 -2.57327,0.2332 -3.7433,0.92497 -5.15582,3.0478 -0.82147,1.23462 -1.9595,3.83612 -1.82801,4.17876 0.032,0.0838 0.21628,0.15361 0.46047,0.1755 2.81074,0.25163 5.38424,-0.31876 6.66391,-1.47715 0.87929,-0.79595 1.74274,-2.38358 2.34777,-4.31667 0.13837,-0.4421 0.25906,-0.97366 0.26818,-1.18131 l 0.0166,-0.37782 -0.80384,-0.0775 c -0.185,-0.0178 -0.40756,-0.0273 -0.65126,-0.0293 z m -37.04005,0.0262 c -0.66906,0 -1.22348,0.0408 -1.29459,0.11205 -0.15244,0.15247 0.59008,2.7837 0.91742,3.25095 0.0806,0.11519 0.14666,0.27217 0.14666,0.3486 0,0.2508 0.75159,1.41045 1.29348,1.99571 0.82595,0.89209 2.17536,1.46312 4.00234,1.69349 1.38841,0.17519 3.28509,0.0869 3.37878,-0.15729 0.1236,-0.3221 -1.09914,-3.05628 -1.91704,-4.2866 -1.24528,-1.87319 -2.36679,-2.57888 -4.54463,-2.85994 -0.52964,-0.068 -1.31336,-0.10054 -1.98242,-0.0974 z m 22.45494,3.05754 c -0.3784,0 -1.75969,2.5594 -2.22013,4.11372 -0.3436,1.15985 -0.36643,2.6525 -0.0536,3.49809 0.47118,1.27347 1.58335,2.74203 2.9728,3.92534 0.42766,0.3642 0.85439,0.66213 0.94827,0.66213 0.21229,0 0.49947,-0.62611 1.07479,-2.34317 0.74366,-2.21938 0.95958,-3.95507 0.64314,-5.17 -0.28804,-1.10582 -1.2339,-2.59281 -2.54466,-4.00053 -0.36625,-0.39332 -0.71603,-0.68558 -0.82064,-0.68558 z m -7.70619,0.0188 c -0.38514,-0.0555 -2.17586,2.06063 -2.8653,3.38542 -0.51525,0.99 -0.67121,1.58961 -0.67121,2.57939 0,1.39725 0.62109,3.85748 1.41722,5.61328 0.19257,0.42474 0.32464,0.60213 0.4481,0.60213 0.24577,0 1.76518,-1.34981 2.40244,-2.13446 0.70975,-0.87377 1.13269,-1.55778 1.45785,-2.35751 0.23385,-0.5751 0.26893,-0.78601 0.26875,-1.60762 -3.9e-4,-1.5471 -0.52663,-3.14403 -1.66751,-5.05942 -0.41487,-0.69658 -0.65076,-1.00131 -0.79034,-1.02121 z m 19.67312,5.09022 c -0.2328,0 -0.58084,0.0105 -1.10619,0.024 -2.31743,0.0775 -3.73761,0.504 -4.77199,1.43401 -0.97376,0.87554 -2.18434,2.99481 -2.83149,4.95669 -0.34386,1.04246 -0.34915,1.07828 -0.17474,1.20582 0.21811,0.15949 1.23497,0.17268 2.59009,0.0335 2.88361,-0.29593 4.4715,-1.2364 5.51838,-3.26802 0.71491,-1.3873 1.43736,-3.80732 1.26818,-4.24818 -0.0362,-0.0942 -0.1042,-0.13341 -0.49224,-0.13812 z m -31.69879,0 c -0.39937,0 -0.49156,0.0398 -0.52271,0.12084 -0.08,0.2086 0.33793,1.87423 0.74583,2.9724 0.5483,1.47621 1.24222,2.57354 2.02085,3.19577 0.77923,0.62265 2.35422,1.1742 3.88099,1.35871 0.97714,0.11802 2.70475,0.0838 2.84461,-0.0565 0.26036,-0.26096 -0.96904,-3.25986 -1.95343,-4.76507 -1.32758,-2.02984 -2.74576,-2.70234 -5.91234,-2.80392 -0.5139,-0.0167 -0.86417,-0.0252 -1.1038,-0.022 z m 11.05062,9.2631 c -0.29239,0 -1.34563,0.39824 -1.39525,0.52756 -0.0268,0.0701 0.42385,1.50113 1.00164,3.18058 1.25969,3.66146 2.554,7.72355 3.555,11.15734 l 0.73586,2.52432 -0.91078,3.38615 c -1.14243,4.24723 -1.70088,6.52809 -1.63832,6.69113 0.0267,0.0691 0.29633,0.21289 0.59918,0.31845 0.30285,0.10545 0.64466,0.19519 0.75969,0.19927 0.23424,0.0105 0.18958,0.13435 0.73345,-2.07309 0.55286,-2.2441 1.30981,-5.0122 1.3705,-5.0122 0.0642,0 0.82035,2.80811 1.4357,5.33148 0.25232,1.03472 0.46275,1.71004 0.54247,1.74062 0.17963,0.0691 1.431,-0.34463 1.48743,-0.49165 0.0536,-0.13969 -0.79802,-3.59223 -1.80623,-7.32237 -0.39041,-1.44437 -0.70981,-2.69721 -0.70981,-2.78402 0,-0.48023 2.70122,-9.15577 4.31743,-13.86627 0.54276,-1.58176 0.96689,-2.92801 0.94255,-2.99146 -0.0463,-0.12043 -1.1123,-0.51584 -1.391,-0.51584 -0.0884,0 -0.19123,0.0743 -0.22866,0.16545 -0.47209,1.14801 -3.28839,9.7159 -4.12314,12.5438 -0.22428,0.75982 -0.43448,1.38143 -0.46729,1.38143 -0.0328,0 -0.19976,-0.47877 -0.37089,-1.06394 -0.78064,-2.66934 -3.68036,-11.52175 -4.21289,-12.86129 -0.0363,-0.0911 -0.13828,-0.16545 -0.22664,-0.16545 z"
       id="path4338"
       inkscape:connector-curvature="0" />
    <path
       style="fill:none;fill-rule:evenodd;stroke:#666666;stroke-width:1.836;stroke-linecap:butt;stroke-linejoin:miter;stroke-miterlimit:4;stroke-dasharray:none;stroke-opacity:1"
       d="M 216.52156,707.3394 393.22542,884.04326"
       id="path4285"
       inkscape:connector-curvature="0" />
    <path
       style="font-style:normal;font-variant:normal;font-weight:normal;font-stretch:normal;font-size:medium;line-height:125%;font-family:ProximaNovaT-Thin;-inkscape-font-specification:'ProximaNovaT-Thin, Normal';text-align:start;letter-spacing:0px;word-spacing:0px;writing-mode:lr-tb;text-anchor:start;fill:#666666;fill-opacity:1;stroke:none;stroke-width:1px;stroke-linecap:butt;stroke-linejoin:miter;stroke-opacity:1"
       d="M 30.351562 335.0332 L 30.351562 372.46094 L 44.660156 372.46094 C 47.952303 372.46094 50.552991 371.58255 52.460938 369.82422 C 54.406297 368.06595 55.378906 365.57866 55.378906 362.36133 C 55.378906 361.27639 55.173239 360.22882 54.761719 359.21875 C 54.387612 358.17122 53.862846 357.23511 53.189453 356.41211 C 52.51606 355.55164 51.731844 354.84043 50.833984 354.2793 C 49.973538 353.6807 49.03743 353.3078 48.027344 353.1582 C 48.850377 353.00854 49.65578 352.68946 50.441406 352.20312 C 51.26444 351.71679 51.973692 351.119 52.572266 350.4082 C 53.208252 349.65994 53.713784 348.79884 54.087891 347.82617 C 54.461997 346.85351 54.648438 345.7694 54.648438 344.57227 C 54.648438 343.0384 54.387035 341.6737 53.863281 340.47656 C 53.376941 339.27943 52.684963 338.28755 51.787109 337.50195 C 50.889249 336.67889 49.80517 336.0619 48.533203 335.65039 C 47.29865 335.23887 45.931974 335.0332 44.435547 335.0332 L 30.351562 335.0332 z M 63.998047 335.0332 L 63.998047 372.46094 L 65.794922 372.46094 L 65.794922 356.30078 L 74.773438 356.30078 L 86.164062 372.46094 L 88.464844 372.46094 L 76.90625 356.30078 C 78.402677 356.30078 79.823135 356.07589 81.169922 355.62695 C 82.516709 355.14062 83.694985 354.44865 84.705078 353.55078 C 85.715165 352.65291 86.50134 351.54963 87.0625 350.24023 C 87.661073 348.89343 87.960938 347.35954 87.960938 345.63867 C 87.960937 343.91781 87.661073 342.40315 87.0625 341.09375 C 86.50134 339.78435 85.715165 338.67912 84.705078 337.78125 C 83.694985 336.88342 82.516709 336.21065 81.169922 335.76172 C 79.823135 335.27538 78.402677 335.0332 76.90625 335.0332 L 63.998047 335.0332 z M 96.550781 335.0332 L 96.550781 372.46094 L 119.44531 372.46094 L 119.44531 370.77734 L 98.345703 370.77734 L 98.345703 354.05664 L 119.05273 354.05664 L 119.05273 352.37305 L 98.345703 352.37305 L 98.345703 336.7168 L 119.44531 336.7168 L 119.44531 335.0332 L 96.550781 335.0332 z M 124.36133 335.0332 L 135.02344 372.46094 L 137.15625 372.46094 L 146.86328 338.39844 L 156.57227 372.46094 L 158.70508 372.46094 L 169.36719 335.0332 L 167.40234 335.0332 L 157.63867 369.76758 L 147.81836 335.0332 L 145.91016 335.0332 L 136.08984 369.76758 L 126.32617 335.0332 L 124.36133 335.0332 z M 175.68359 335.0332 L 175.68359 372.46094 L 196.27734 372.46094 L 196.27734 370.77734 L 177.47852 370.77734 L 177.47852 335.0332 L 175.68359 335.0332 z M 203.74023 335.0332 L 203.74023 372.46094 L 205.53711 372.46094 L 205.53711 335.0332 L 203.74023 335.0332 z M 215.46875 335.0332 L 215.46875 372.46094 L 217.26367 372.46094 L 217.26367 337.95117 L 242.51562 372.46094 L 244.3125 372.46094 L 244.3125 335.0332 L 242.51562 335.0332 L 242.51562 369.20703 L 217.26367 335.0332 L 215.46875 335.0332 z M 254.1582 335.0332 L 254.1582 372.46094 L 277.05273 372.46094 L 277.05273 370.77734 L 255.95312 370.77734 L 255.95312 354.05664 L 276.66016 354.05664 L 276.66016 352.37305 L 255.95312 352.37305 L 255.95312 336.7168 L 277.05273 336.7168 L 277.05273 335.0332 L 254.1582 335.0332 z M 32.146484 336.7168 L 44.435547 336.7168 C 45.81974 336.7168 47.01725 336.92248 48.027344 337.33398 C 49.074844 337.74552 49.935982 338.32407 50.609375 339.07227 C 51.320175 339.78307 51.842987 340.62499 52.179688 341.59766 C 52.516381 342.53292 52.685547 343.52473 52.685547 344.57227 C 52.685547 345.6572 52.516381 346.68554 52.179688 347.6582 C 51.842988 348.59347 51.320175 349.41615 50.609375 350.12695 C 49.935982 350.80035 49.074844 351.34433 48.027344 351.75586 C 47.01725 352.16733 45.81974 352.37305 44.435547 352.37305 L 32.146484 352.37305 L 32.146484 336.7168 z M 65.794922 336.7168 L 76.90625 336.7168 C 78.29045 336.7168 79.543696 336.93977 80.666016 337.38867 C 81.788336 337.83761 82.741717 338.45457 83.527344 339.24023 C 84.31297 340.02583 84.910752 340.98118 85.322266 342.10352 C 85.771199 343.18845 85.996094 344.36674 85.996094 345.63867 C 85.996094 346.94807 85.771199 348.1456 85.322266 349.23047 C 84.910752 350.3154 84.31297 351.26873 83.527344 352.0918 C 82.741717 352.8774 81.788336 353.49443 80.666016 353.94336 C 79.543696 354.39229 78.29045 354.61719 76.90625 354.61719 L 65.794922 354.61719 L 65.794922 336.7168 z M 32.146484 354.05664 L 44.660156 354.05664 C 46.119176 354.05664 47.391649 354.29882 48.476562 354.78516 C 49.561469 355.23409 50.459115 355.85105 51.169922 356.63672 C 51.918135 357.42232 52.479409 358.32001 52.853516 359.33008 C 53.227622 360.34021 53.414062 361.3705 53.414062 362.41797 C 53.414062 364.9993 52.647121 367.03674 51.113281 368.5332 C 49.579441 370.0296 47.42855 370.77734 44.660156 370.77734 L 32.146484 370.77734 L 32.146484 354.05664 z "
       transform="translate(151.17227,663.2467)"
       id="path4159" />
  </g>
</svg>
