<?xml version="1.0" encoding="UTF-8" standalone="no"?>
<!-- Created with Inkscape (http://www.inkscape.org/) -->

<svg
   xmlns:dc="http://purl.org/dc/elements/1.1/"
   xmlns:cc="http://creativecommons.org/ns#"
   xmlns:rdf="http://www.w3.org/1999/02/22-rdf-syntax-ns#"
   xmlns:svg="http://www.w3.org/2000/svg"
   xmlns="http://www.w3.org/2000/svg"
   xmlns:sodipodi="http://sodipodi.sourceforge.net/DTD/sodipodi-0.dtd"
   xmlns:inkscape="http://www.inkscape.org/namespaces/inkscape"
   width="267.6701"
   height="284.47574"
   viewBox="0 0 267.67011 284.47574"
   id="svg4400"
   version="1.1"
   inkscape:version="0.91 r13725"
   sodipodi:docname="six-packsvg.svg">
  <defs
     id="defs4402" />
  <sodipodi:namedview
     id="base"
     pagecolor="#ffffff"
     bordercolor="#666666"
     borderopacity="1.0"
     inkscape:pageopacity="0.0"
     inkscape:pageshadow="2"
     inkscape:zoom="0.7"
     inkscape:cx="164.96043"
     inkscape:cy="51.909731"
     inkscape:document-units="px"
     inkscape:current-layer="layer1"
     showgrid="false"
     units="px"
     fit-margin-top="0"
     fit-margin-left="0"
     fit-margin-right="0"
     fit-margin-bottom="0" />
  <metadata
     id="metadata4405">
    <rdf:RDF>
      <cc:Work
         rdf:about="">
        <dc:format>image/svg+xml</dc:format>
        <dc:type
           rdf:resource="http://purl.org/dc/dcmitype/StillImage" />
        <dc:title></dc:title>
      </cc:Work>
    </rdf:RDF>
  </metadata>
  <g
     inkscape:label="Layer 1"
     inkscape:groupmode="layer"
     id="layer1"
     transform="translate(482.34784,-98.660402)">
    <path
       inkscape:connector-curvature="0"
       id="path4987"
       d="m -436.2476,373.3479 c -9.32208,-0.61086 -16.2366,-1.90296 -19.81926,-3.70362 -2.13241,-1.07178 -2.65654,-1.62594 -3.22814,-3.4132 -0.47165,-1.47476 -0.55619,-2.52628 -0.7409,-9.21624 -0.2876,-10.41569 -1.07025,-130.41545 -0.86258,-132.25113 0.26546,-2.34633 1.49348,-6.24363 2.8287,-8.97734 0.67511,-1.3822 2.86288,-4.96098 4.8617,-7.95285 4.28567,-6.41483 5.62682,-9.0158 6.32336,-12.26317 0.37077,-1.72861 1.14444,-10.78604 2.97014,-34.77201 1.35781,-17.83899 2.46549,-32.88018 2.4615,-33.42489 -0.006,-0.87951 -0.11434,-1.05638 -0.96365,-1.57997 -1.35376,-0.83455 -2.0014,-2.10431 -2.0014,-3.9239 0,-1.60129 0.37907,-2.8718 1.94961,-6.53441 0.56182,-1.31021 1.02149,-2.57084 1.02149,-2.80139 0,-0.23057 -0.31979,-0.68829 -0.71066,-1.01717 -1.53184,-1.28897 -1.56409,-3.0018 -0.0897,-4.76603 l 0.68152,-0.8155 4.45418,-0.35354 c 5.37098,-0.42629 14.66864,-0.47032 19.20139,-0.0909 3.40584,0.28508 4.44084,0.63401 5.43516,1.83235 0.56811,0.6847 0.4144,2.36604 -0.33965,3.71518 l -0.66142,1.1834 0.73535,1.90686 c 2.3463,6.08411 2.32079,9.62424 -0.0831,11.54233 -0.71847,0.57327 -0.89308,0.8815 -0.89446,1.57891 -0.005,2.3642 4.75319,66.00008 5.05942,67.66943 0.48651,2.65196 1.94861,5.54047 5.60073,11.06474 1.66549,2.51925 3.73891,5.80604 4.60762,7.30397 2.51413,4.33522 4.23895,9.26926 4.67379,13.36996 0.0866,0.81706 -0.0188,25.21723 -0.23416,54.2226 -0.6412,86.33004 -0.5693,80.51185 -1.02198,82.70339 -0.51873,2.51134 -1.25806,3.93762 -2.77811,5.35944 -1.00927,0.94408 -1.64124,1.2805 -3.5529,1.89141 -2.78349,0.88952 -7.22001,1.66522 -12.39251,2.16679 -4.58842,0.44493 -17.86721,0.64952 -22.49106,0.34651 z"
       style="fill:#666666" />
    <path
       style="fill:#666666"
       d="m -375.12835,369.47699 c -8.98253,-0.58862 -15.64519,-1.83366 -19.09736,-3.56873 -2.05475,-1.03274 -2.55979,-1.56671 -3.11056,-3.28887 -0.45448,-1.42105 -0.53593,-2.43427 -0.71391,-8.88056 -0.27713,-10.0363 -1.03128,-125.66521 -0.83116,-127.43402 0.25578,-2.26088 1.43906,-6.01623 2.72566,-8.65036 0.65052,-1.33186 2.75859,-4.78029 4.68462,-7.66317 4.12956,-6.18119 5.42187,-8.68741 6.09303,-11.81651 0.35726,-1.66565 1.10276,-10.39317 2.86195,-33.50548 1.30837,-17.18923 2.37569,-31.68256 2.37185,-32.20742 -0.006,-0.84748 -0.11017,-1.0179 -0.92855,-1.52242 -1.30444,-0.80416 -1.92849,-2.02766 -1.92849,-3.78098 0,-1.54297 0.36525,-2.7672 1.87859,-6.29641 0.54135,-1.26248 0.98428,-2.4772 0.98428,-2.69935 0,-0.22216 -0.30813,-0.66322 -0.68477,-0.98012 -1.47606,-1.24202 -1.50713,-2.89246 -0.0864,-4.59243 l 0.65671,-0.78581 4.29193,-0.34064 c 5.17535,-0.41077 14.13435,-0.45319 18.50201,-0.0876 3.28178,0.2747 4.27907,0.61092 5.23719,1.76561 0.54742,0.65975 0.3993,2.27986 -0.32728,3.57986 l -0.63733,1.14029 0.70857,1.83741 c 2.26083,5.8625 2.23626,9.27369 -0.0801,11.12191 -0.69231,0.55239 -0.86056,0.8494 -0.86189,1.5214 -0.005,2.27809 4.58006,63.59611 4.87514,65.20466 0.46879,2.55536 1.87764,5.33865 5.39673,10.66172 1.60483,2.42749 3.60273,5.59456 4.43979,7.03793 2.42257,4.17732 4.08455,8.93163 4.50356,12.88297 0.0834,0.7873 -0.0181,24.29873 -0.22563,52.24761 -0.61785,83.18557 -0.54857,77.5793 -0.98477,79.69101 -0.49983,2.41988 -1.21223,3.7942 -2.67691,5.16423 -0.9725,0.90969 -1.58146,1.23386 -3.42349,1.82252 -2.68211,0.85712 -6.95703,1.60457 -11.94113,2.08787 -4.4213,0.42872 -17.21641,0.62586 -21.67184,0.33389 z"
       id="path4989"
       inkscape:connector-curvature="0" />
    <path
       inkscape:connector-curvature="0"
       id="path4991"
       d="m -317.68806,365.60492 c -8.71746,-0.57123 -15.1835,-1.77954 -18.53379,-3.46339 -1.99411,-1.00227 -2.48425,-1.5205 -3.01878,-3.19183 -0.44104,-1.37911 -0.5201,-2.36243 -0.69283,-8.61848 -0.26895,-9.74014 -1.00083,-121.95674 -0.80662,-123.67336 0.24823,-2.19415 1.3966,-5.83868 2.64522,-8.39507 0.63132,-1.29256 2.67719,-4.63923 4.54637,-7.43704 4.0077,-5.99877 5.26186,-8.43103 5.91323,-11.46779 0.34671,-1.61649 1.07021,-10.08645 2.77749,-32.5167 1.26975,-16.68196 2.30558,-30.7476 2.30185,-31.25697 -0.006,-0.82246 -0.10692,-0.98786 -0.90114,-1.47748 -1.26596,-0.78043 -1.87159,-1.96784 -1.87159,-3.66942 0,-1.49742 0.35448,-2.68552 1.82315,-6.11058 0.52538,-1.22523 0.95524,-2.40409 0.95524,-2.61969 0,-0.2156 -0.29905,-0.64365 -0.66457,-0.95119 -1.43249,-1.20537 -1.46265,-2.80711 -0.0838,-4.45692 l 0.63733,-0.76261 4.16528,-0.33059 c 5.02261,-0.39865 13.71723,-0.43983 17.95599,-0.085 3.18493,0.2666 4.1528,0.59288 5.08264,1.71351 0.53126,0.64029 0.38752,2.21258 -0.31762,3.47421 l -0.61852,1.10666 0.68766,1.78317 c 2.1941,5.6895 2.17026,9.00002 -0.0777,10.79369 -0.67188,0.53609 -0.83516,0.82434 -0.83645,1.47651 -0.005,2.21086 4.44489,61.71934 4.73127,63.28042 0.45495,2.47995 1.82222,5.1811 5.23746,10.34709 1.55748,2.35585 3.49641,5.42946 4.30877,6.83022 2.35107,4.05405 3.96401,8.66807 4.37065,12.5028 0.081,0.76405 -0.0174,23.58165 -0.21897,50.70574 -0.59962,80.73071 -0.53237,75.28988 -0.9557,77.33928 -0.48507,2.34846 -1.17646,3.68223 -2.59791,5.01183 -0.94381,0.88284 -1.5348,1.19744 -3.32246,1.76873 -2.60296,0.83182 -6.75174,1.55721 -11.58873,2.02624 -4.29083,0.41608 -16.70836,0.6074 -21.0323,0.32404 z"
       style="fill:#666666" />
    <path
       style="fill:#cccccc;fill-rule:evenodd;stroke:none;stroke-width:1px;stroke-linecap:butt;stroke-linejoin:miter;stroke-opacity:1"
       d="m -438.21484,130.14844 -2.14258,102.14258 207.14258,7.14257 17.85742,-34.28515 -42.85742,-18.21485 0.35742,-45 z M -395,148.71875 l 90.07227,4.42969 0.71289,21.78515 -91.14258,-3.35742 z"
       id="path4961"
       inkscape:connector-curvature="0"
       sodipodi:nodetypes="cccccccccccc" />
    <path
       style="fill:#808080"
       d="m -399.45885,375.34331 c -9.61994,-0.63038 -16.75539,-1.96377 -20.45252,-3.82196 -2.20055,-1.10603 -2.74143,-1.67789 -3.33129,-3.52226 -0.48672,-1.52188 -0.57396,-2.607 -0.76457,-9.51072 -0.29679,-10.74849 -1.10445,-134.58248 -0.89014,-136.47681 0.27394,-2.4213 1.54119,-6.44313 2.91908,-9.26418 0.69668,-1.42637 2.95435,-5.1195 5.01704,-8.20696 4.4226,-6.6198 5.80661,-9.30387 6.5254,-12.65501 0.38262,-1.78384 1.18101,-11.13067 3.06504,-35.88304 1.4012,-18.40898 2.54427,-33.93077 2.54015,-34.49288 -0.006,-0.90761 -0.11799,-1.09013 -0.99444,-1.63045 -1.39701,-0.86122 -2.06534,-2.17155 -2.06534,-4.04928 0,-1.65245 0.39118,-2.96356 2.0119,-6.7432 0.57977,-1.35207 1.05413,-2.65298 1.05413,-2.8909 0,-0.23793 -0.33001,-0.71028 -0.73337,-1.04967 -1.58079,-1.33015 -1.61407,-3.09771 -0.0926,-4.91831 l 0.7033,-0.841561 4.5965,-0.36483 c 5.54259,-0.439912 15.13733,-0.485348 19.81491,-0.09384 3.51466,0.294188 4.58273,0.654269 5.60883,1.890901 0.58626,0.70657 0.42764,2.44164 -0.35051,3.83388 l -0.68255,1.22122 0.75885,1.96778 c 2.42126,6.27851 2.39494,9.93176 -0.0858,11.91113 -0.74143,0.59159 -0.92162,0.90967 -0.92304,1.62936 -0.005,2.43974 4.90506,68.10892 5.22108,69.83161 0.50205,2.73669 2.01087,5.71749 5.77968,11.41828 1.71871,2.59974 3.85838,5.99155 4.75484,7.53734 2.59447,4.47374 4.3744,9.56543 4.82313,13.79716 0.0894,0.84316 -0.0194,26.02297 -0.24164,55.95512 -0.66169,89.08845 -0.58749,83.08436 -1.05464,85.34592 -0.5353,2.59159 -1.29825,4.06344 -2.86687,5.53069 -1.04152,0.97424 -1.69368,1.32141 -3.66642,1.95184 -2.87243,0.91794 -7.45071,1.71843 -12.78848,2.23603 -4.73503,0.45914 -18.4381,0.67027 -23.20969,0.35758 z"
       id="path4974"
       inkscape:connector-curvature="0" />
    <path
       inkscape:connector-curvature="0"
       id="path4976"
       d="m -336.38672,371.34871 c -9.26954,-0.60742 -16.14509,-1.89224 -19.70756,-3.68275 -2.1204,-1.06574 -2.64158,-1.61677 -3.20995,-3.39396 -0.469,-1.46645 -0.55305,-2.51205 -0.73672,-9.16431 -0.28598,-10.35698 -1.06423,-129.68046 -0.85772,-131.50579 0.26396,-2.33312 1.48505,-6.20846 2.81275,-8.92675 0.67131,-1.37442 2.84674,-4.93303 4.83431,-7.90803 4.26151,-6.37869 5.59511,-8.96499 6.28771,-12.19407 0.36868,-1.71887 1.138,-10.72525 2.9534,-34.57604 1.35017,-17.73846 2.4516,-32.69488 2.44763,-33.23652 -0.006,-0.87455 -0.11369,-1.05042 -0.95822,-1.57106 -1.34612,-0.82985 -1.99011,-2.09245 -1.99011,-3.90179 0,-1.59227 0.37693,-2.85562 1.93862,-6.49759 0.55865,-1.30282 1.01573,-2.55635 1.01573,-2.7856 0,-0.22926 -0.31798,-0.68441 -0.70665,-1.01144 -1.52322,-1.2817 -1.55529,-2.98488 -0.0892,-4.73917 l 0.67769,-0.81091 4.42907,-0.35153 c 5.34071,-0.42389 14.58597,-0.46767 19.09318,-0.0904 3.38664,0.28348 4.4158,0.63044 5.40453,1.82203 0.56491,0.68083 0.41206,2.3527 -0.33774,3.69424 l -0.65769,1.17673 0.73121,1.89611 c 2.33307,6.04982 2.30771,9.57001 -0.0827,11.47728 -0.71443,0.57004 -0.88806,0.87654 -0.88943,1.57001 -0.005,2.35088 4.7264,65.62813 5.03091,67.28808 0.48377,2.63701 1.93763,5.50923 5.56917,11.00238 1.6561,2.50506 3.71784,5.77332 4.58165,7.26281 2.49997,4.31079 4.21506,9.21701 4.64745,13.29461 0.0861,0.81245 -0.0187,25.07512 -0.23284,53.91702 -0.63759,85.84351 -0.56609,80.05811 -1.01623,82.23729 -0.5158,2.4972 -1.25096,3.91544 -2.76244,5.32924 -1.00358,0.93876 -1.63199,1.27329 -3.53288,1.88075 -2.76781,0.88451 -7.17932,1.65584 -12.32267,2.15459 -4.56257,0.44241 -17.76651,0.64585 -22.3643,0.34455 z"
       style="fill:#808080" />
    <path
       style="fill:#808080"
       d="m -277.31459,367.35411 c -8.91915,-0.58445 -15.5348,-1.82071 -18.9626,-3.54353 -2.04025,-1.02546 -2.54173,-1.55567 -3.08862,-3.26567 -0.45126,-1.41102 -0.53214,-2.41709 -0.70887,-8.81789 -0.27517,-9.96549 -1.02399,-124.77846 -0.82529,-126.53479 0.25398,-2.24492 1.42892,-5.97377 2.70643,-8.58931 0.64593,-1.32246 2.73913,-4.74656 4.65156,-7.6091 4.10043,-6.13757 5.38361,-8.62611 6.05004,-11.73313 0.35474,-1.65389 1.09498,-10.31982 2.84176,-33.26904 1.29912,-17.06793 2.35892,-31.459 2.3551,-31.98016 -0.006,-0.84149 -0.10939,-1.01071 -0.92199,-1.51167 -1.29524,-0.79848 -1.91489,-2.01336 -1.91489,-3.75431 0,-1.53207 0.36268,-2.74766 1.86534,-6.25197 0.53753,-1.25357 0.97734,-2.45971 0.97734,-2.6803 0,-0.22059 -0.30597,-0.65854 -0.67995,-0.9732 -1.46563,-1.23325 -1.49649,-2.87206 -0.0858,-4.56003 l 0.65207,-0.78026 4.26165,-0.33824 c 5.13882,-0.40787 14.03461,-0.45 18.37144,-0.087 3.25863,0.27276 4.24889,0.6066 5.20024,1.75315 0.54355,0.6551 0.39649,2.26377 -0.32497,3.5546 l -0.63283,1.13225 0.70357,1.82443 c 2.24487,5.82114 2.22047,9.20826 -0.0795,11.04343 -0.68742,0.54849 -0.85448,0.84341 -0.8558,1.51067 -0.005,2.26201 4.54773,63.14734 4.84073,64.74454 0.46549,2.53733 1.86439,5.30098 5.35865,10.58649 1.59351,2.41036 3.57731,5.55508 4.40846,6.98826 2.40547,4.14784 4.05573,8.86861 4.47178,12.79207 0.0829,0.78173 -0.0179,24.12726 -0.22404,51.87892 -0.61349,82.59857 -0.54469,77.03186 -0.97781,79.12867 -0.4963,2.4028 -1.20368,3.76743 -2.65802,5.12779 -0.96565,0.90327 -1.57031,1.22515 -3.39934,1.80966 -2.66318,0.85107 -6.90794,1.59324 -11.85686,2.07313 -4.3901,0.4257 -17.09493,0.62145 -21.51892,0.33153 z"
       id="path4978"
       inkscape:connector-curvature="0" />
    <path
       style="fill:#e6e6e6;fill-rule:evenodd;stroke:none;stroke-width:1px;stroke-linecap:butt;stroke-linejoin:miter;stroke-opacity:1"
       d="m -396.04071,202.72704 180.87822,2.566 0.48477,166.22635 -181.36299,11.61675 z"
       id="path4959"
       inkscape:connector-curvature="0"
       sodipodi:nodetypes="ccccc" />
    <path
       inkscape:connector-curvature="0"
       id="path4996"
       d="m -482.34784,205.29304 42.93148,-24.24367 43.37565,21.67767 0,180.4091 -86.28683,-11.11167 z"
       style="fill:#b3b3b3;fill-rule:evenodd;stroke:none;stroke-width:1px;stroke-linecap:butt;stroke-linejoin:miter;stroke-opacity:1"
       sodipodi:nodetypes="cccccc" />
  </g>
</svg>
